v -0.500000 -0.500000 0.500000
v 0.500000 -0.500000 0.500000
v -0.500000 0.500000 0.500000
v 0.500000 0.500000 0.500000
v -0.500000 0.500000 -0.500000
v 0.500000 0.500000 -0.500000
v -0.500000 -0.500000 -0.500000
v 0.500000 -0.500000 -0.500000

vn 0.000000 0.000000 1.000000
vn 0.000000 1.000000 0.000000
vn 0.000000 0.000000 -1.000000
vn 0.000000 -1.000000 0.000000
vn 1.000000 0.000000 0.000000
vn -1.000000 0.000000 0.000000

s 1
f 1//1 2//1 3//1
f 3//1 2//1 4//1
s 2
f 3//2 4//2 5//2
f 5//2 4//2 6//2
s 3
f 5//3 6//3 7//3
f 7//3 6//3 8//3
s 4
f 7//4 8//4 1//4
f 1//4 8//4 2//4
s 5
f 2//5 8//5 4//5
f 4//5 8//5 6//5
s 6
f 7//6 1//6 5//6
f 5//6 1//6 3//6
